<?xml version="1.0" encoding="utf-8"?>
<!-- Generator: Adobe Illustrator 23.0.1, SVG Export Plug-In . SVG Version: 6.00 Build 0)  -->
<svg version="1.1" id="Layer_1" xmlns="http://www.w3.org/2000/svg" xmlns:xlink="http://www.w3.org/1999/xlink" x="0px" y="0px"
	 viewBox="0 0 268 58.7" style="enable-background:new 0 0 268 58.7;" xml:space="preserve">
<style type="text/css">
	.st0{display:none;}
	.st1{display:inline;fill-rule:evenodd;clip-rule:evenodd;fill:#614C88;}
	.st2{display:none;fill:#FFFFFF;}
	.st3{fill:#614C87;}
	.st4{fill:#FFFFFF;}
</style>
<g class="st0">
	<path class="st1" d="M206.1,11.5c-0.6,0-1.2-0.5-1.2-1.2c0-0.6,0.5-1.2,1.2-1.2s1.2,0.6,1.2,1.2C207.3,11,206.7,11.5,206.1,11.5z
		 M206.1,9.3c-0.6,0-1.1,0.5-1.1,1.1l0,0c0,0.6,0.5,1.1,1.1,1.1s1.1-0.5,1.1-1.1l0,0C207.2,9.7,206.7,9.3,206.1,9.3L206.1,9.3z
		 M202.2,14.3c-2-1.7-4.6-2-5.3-1.6c-0.8,0.4-1.5,1.3,2.1,2.8c2.4,1,4.6,2.3,6,4.1c1,1.3,1,2.8,0.7,3.9c-0.4,1.6-1.4,3-2.4,3.8
		c-2.4,2-5.9,1.9-7.2,1.8c-4.9-0.3-8.2-2.8-9.3-4.2c-0.4-0.5-0.6-0.8-0.5-1.4c0.3-1.3,2.2-3.2,2.8-2.6c1.1,1.1,1.7,1.7,3,2.2
		c1.2,0.4,2.8,0.6,3.4-0.1c0.4-0.5,0.3-1.3-1.1-2c-1.2-0.6-6.1-2.9-5.8-6.3c0.2-2.5,1.6-4.2,4.2-5.5c2.8-1.4,8.3-1.1,11.5,2.3
		C205.3,12.4,203.2,15.2,202.2,14.3z M171.7,28.1c-2.2-1.3-3.4-3.6-3.2-6.3c0.3-6,3-9.9,3.3-10.4c0.8-1.2,1.8-1,2.4-0.8l0.9,0.4
		c0.8,0.3,1.6,0.6,2,0.8c0.7,0.4,0.9,1.3,0.5,2.1l-0.3,0.6c-0.7,1.3-1.8,3.2-2.1,5.7c-0.1,1,0.4,2,1.1,2.3c0.9,0.4,2.2-0.2,3.2-1.5
		c1.7-2,1.9-5.3,2-8.9v-0.3c0-0.9,0.6-1.5,1.5-1.6s1.6-0.1,2-0.1c0.9,0,1.5,0.6,1.5,1.5c0.2,4-0.5,12.7-6.5,16.2
		C177.2,29.4,174.1,29.5,171.7,28.1z M171.9,30c2.3,0,3.2,1.5,3.3,2.6h-1.6l0,0c-0.1-0.4-0.4-1.3-1.7-1.3c-0.8,0-1.9,0.5-1.9,2.6
		c0,1.3,0.5,2.5,1.9,2.5c0.9,0,1.5-0.5,1.7-1.4h1.6c-0.3,1.6-1.4,2.7-3.3,2.7c-2,0-3.5-1.3-3.5-3.9C168.4,31.3,169.9,30,171.9,30
		L171.9,30z M163.9,32.5c-0.6,1.7-0.4,2.1-2.7,2.3c-1.6,0.2-6.1,0.5-6.1,0.5c-2.2,0-2.4-0.8-2.1-3.1l0.5-4.7c0.3-4-1.7-4-3.2-1.5
		c-2.8,4.7-5.2,7.7-6.4,8.7c-1.9,1.7-2.5,1.9-5,0.8c-2.1-0.9-5-4-5-4c-1.3-1.5-0.2-2,1.3-3.2c2.6-2,4.1-4.7,4.8-6.1
		c0.7-1.1,1-1.8,0.4-2.1c-8.3-5.5-5.4-16.7,3.6-19.4c4.9-1.4,12.8-1,20.8,3c1.9,0.9,2.6,1.9,2.5,4C167.3,7.7,167,23.4,163.9,32.5
		L163.9,32.5z M159.3,12.7l-1.5-0.3l-0.1-0.8c0-0.1-0.1-0.2-0.2-0.3c-0.1,0-0.2,0-0.3,0c0,0-2.4,0.9-2.6,1c-0.2,0.1-0.4-0.1-0.2-0.3
		c0.1-0.2,1.8-3.2,1.8-3.2c0.1-0.1,0.1-0.3,0-0.4c-0.1-0.1-0.2-0.2-0.3-0.2h-1.3l-0.6-2c0-0.1-0.1-0.2-0.2-0.2c-0.1,0-0.3,0-0.4,0.1
		l-1.7,1.5l-1.1-0.8c-0.1-0.1-0.2-0.1-0.4,0c-0.1,0-0.2,0.2-0.2,0.3c0,0-0.4,3.5-0.4,3.7s-0.2,0.3-0.4,0s-1.5-2.2-1.5-2.2
		c-0.1-0.1-0.2-0.2-0.3-0.2s-0.2,0-0.3,0.1l-0.5,0.6l-1.4-0.6c-0.1,0-0.3,0-0.4,0c-0.1,0.1-0.2,0.2-0.2,0.3l0.2,1.7
		c0,0-0.6,0.4-0.7,0.5c-0.1,0.2,0,0.3,0,0.4l2.7,3.1c0,0,0.2,0.2,0,0.3c-0.1,0.1-0.6,0.6-0.6,0.6c-0.1,0.1-0.1,0.2-0.1,0.4
		c0.1,0.1,0.2,0.2,0.3,0.2c0,0,3,0.3,3.2,0.3c0.1,0,0.2,0.1,0.1,0.2l-0.5,1.7c-0.1,0.2,0,0.4,0.3,0.5c0.2,0.1,0.4,0,0.5-0.2l0.5-1.7
		c0-0.1,0.1-0.2,0.2-0.1c0.2,0,2.9,1.5,2.9,1.5h0.1c0.1,0,0.2,0,0.3-0.1s0.2-0.2,0.1-0.4c0,0-0.1-0.6-0.1-0.8c0-0.2,0.1-0.3,0.2-0.3
		c0.1,0,4.1-1.1,4.1-1.1c0.1,0,0.2-0.2,0.2-0.3c0-0.2-0.3-0.8-0.3-0.8l1.1-1.3c0.1-0.1,0.1-0.2,0.1-0.3
		C159.5,12.9,159.4,12.8,159.3,12.7z M135.2,23.1c-0.5,4.5-4.6,6-8.2,6c-5,0-7.4-1.8-8.3-2.8c-0.4-0.4-0.7-0.8-0.7-1.2v-1.8
		c0-0.9,0.8-1.1,1.2-0.8c1.2,0.9,2.8,1.7,4.7,2.1c2.2,0.4,3.6-1.7,0.5-3.2c0,0-5.7-2.5-5.8-5.8c0-2.7,1.3-4.4,3.3-5.8
		c2.6-1.8,7-2,10.7,0.2c1.6,1,0.1,3.8-1.7,3c-1.6-0.7-3.3-0.5-3.7,0.5c-0.5,1.1,0.2,1.9,2,2.6C133.9,18.1,135.4,20.9,135.2,23.1z
		 M115.5,14.4c-1.2-0.1-3.1-0.2-4.1-0.2c-0.4,0-0.8,0.3-0.9,0.7c0,0.2-0.1,0.5-0.1,0.7s0,0.5,0.2,0.7s0.4,0.3,0.6,0.3
		c1.8,0.2,4.1,0.5,4.4,0.6c0,0,0.9,0.2,0.9,0.8c0,0.8-0.1,1.7-0.2,2c-0.1,0.4-0.5,0.8-0.7,0.8s-3.3,0.3-4.9,0.3
		c-0.4,0-0.8,0.3-0.9,0.8l-0.1,0.8c0,0.2,0.1,0.5,0.2,0.6c0.2,0.3,0.8,0.3,0.8,0.3c1.9,0,3.7,0,4.5-0.2c0.3-0.1,0.9-0.1,1.2,0.2
		c0.2,0.1,0.3,0.4,0.3,0.6c0,1.2-0.4,2.6-0.6,3.1c-0.1,0.2-0.2,0.8-1.1,1.1c-1.4,0.6-7.4,0.4-9.5-0.4c-1.7-0.6-2.5-1.4-2.8-2.9
		c-0.9-4.9-0.4-10.7-0.2-12.3c0.2-1.4,0.5-3.1,2.9-3.7c2.2-0.6,6.8-0.9,8.7-0.6c1.8,0.2,2.4,0.9,2.6,1.5s0.8,2.5,0.7,3.1
		C117.3,14,117,14.6,115.5,14.4z M96.8,28.9c-2.7,0.2-4.2-0.5-4.3-1.9c-0.6-4.6-0.1-9.9,0.2-11.4c0.1-0.6,0.2-2.7,3.7-2.6
		c1.9,0.1,2.9,0.4,3.4,0.9c0.3,0.3,0.4,0.8,0.4,1.4c-0.2,1.7-0.2,7.5,0.4,10.5c0.2,0.7,0.1,1.3-0.3,1.8
		C99.8,28.2,98.9,28.8,96.8,28.9z M96.8,12.1c-1,0-2-0.4-2.6-1c-0.5-0.4-0.7-1-0.7-1.6s0.2-1.1,0.7-1.6c0.6-0.6,1.6-1,2.6-1
		s2,0.4,2.6,1c0.5,0.5,0.7,1,0.7,1.6C100.2,10.9,98.7,12.1,96.8,12.1z M86.6,17.7c1.7,0.6,4.5,1.6,4.6,4.7c0.1,1.7-0.7,3.2-2.1,4.4
		c-1.7,1.4-5.9,3.4-14.4,1.5c-0.9-0.2-1.1-0.9-1.1-0.9l0,0c-1.5-3.8-2-11.4-0.8-15.8v-0.2c0.2-0.8,0.4-1.8,1.8-2.3
		c2.8-0.9,6.8-1,8.3-0.9c1.4,0.1,5.9,0.8,6.5,4.2c0.4,2.9-2.1,4.4-2.9,4.7c0,0-0.4,0.2-0.6,0.3c-0.2,0.1-0.2,0.1,0,0.2
		C86.1,17.6,86.4,17.7,86.6,17.7z M83.9,12.9c-1.3-0.9-4.5-0.3-4.6-0.2c-0.1,0-0.2,0-0.3,0.1v0.1c0,0.1,0,0.2,0,0.2l0.1,3v0.3
		c0,0,0,0.1,0.1,0.1h0.3c2.1,0.1,3.8-0.4,4.6-1.3c0.4-0.4,0.5-0.9,0.4-1.3C84.4,13.4,84.2,13.1,83.9,12.9z M84.5,20.7
		c-1.5-1.1-4.9-0.7-5-0.7h-0.3c0,0-0.1,0-0.1,0.1v0.3l-0.2,3.5v0.3c0,0,0,0.1,0.1,0.1h0.3c2.2,0.1,4.3,0,5.3-0.9
		c0.4-0.4,0.6-0.9,0.5-1.6C85.1,21.5,84.8,21.1,84.5,20.7z M66.2,28.9c-0.3-0.1-0.5-0.3-0.5-0.6c-0.1-0.4-0.4-1.2-0.7-2.4l-0.1-0.2
		c0,0,0-0.1-0.1-0.1s-0.2,0.1-0.2,0.1c-2.3,0.6-5,0.8-6.9,0.5c0,0-0.1,0-0.2,0c-0.1,0-0.1,0.1-0.1,0.1v0.2c-0.2,0.7-0.4,1.1-0.4,1.3
		c-0.1,0.5-0.2,0.8-0.5,1C56,29.1,55,29,53.6,28.6c-3.3-1.1-3.4-1.4-3-2.6c0-0.1,2.9-9.7,6.4-15c0.8-1.3,1.6-2.4,4.2-2.5
		c2.8-0.2,3.1,0,3.8,1c1.9,2.8,5.3,9.6,6.8,15.2c0,0.1,0,0.2,0.1,0.3c0.2,0.7,0.4,1.3-2,2.7C67.7,29,66.7,29.1,66.2,28.9z
		 M63.9,22.1c0,0-2.3-4.9-2.3-5c-0.1-0.2-0.1-0.2-0.2,0c-0.1,0.1-2.3,5-2.3,5.1s-0.1,0.2,0.1,0.2c1.4,0.1,3.3,0.1,4.6-0.1
		C64,22.3,63.9,22.1,63.9,22.1z M45.7,17.7c1.7,0.6,4.5,1.6,4.6,4.7c0.1,1.7-0.7,3.2-2.2,4.4c-1.7,1.4-5.8,3.4-14.3,1.5
		c-1-0.2-1.1-0.9-1.1-0.9l0,0c-1.7-3.9-2-11.4-0.9-15.9v-0.2c0.2-0.8,0.4-1.8,1.8-2.3c2.8-0.9,6.8-1,8.3-0.9l0,0
		c1.4,0.1,5.9,0.8,6.5,4.2c0.4,2.9-2.1,4.4-2.9,4.7c0,0-0.4,0.2-0.6,0.3c-0.2,0.1-0.2,0.1,0,0.2C45.2,17.6,45.5,17.7,45.7,17.7z
		 M42.9,12.9c-1.3-0.9-4.6-0.3-4.7-0.2c-0.1,0-0.2,0-0.3,0.1v0.1c0,0.1,0.2,3.4,0.2,3.4s0,0.1,0.1,0.1h0.3c2.1,0.1,3.8-0.4,4.6-1.3
		c0.4-0.4,0.5-0.9,0.4-1.3C43.5,13.4,43.3,13.1,42.9,12.9z M44.1,21.9c0-0.5-0.3-0.9-0.7-1.1c-1.4-1.1-4.8-0.7-5-0.7h-0.3
		c0,0-0.1,0-0.1,0.1v0.3l-0.2,3.4v0.3c0,0,0,0.1,0.1,0.1h0.3c2.2,0.1,4.3,0,5.3-0.9C44,23.1,44.2,22.6,44.1,21.9z M177.5,34.4
		l1.3-0.2c0.2,0,0.5-0.1,0.5-0.4c0-0.6-0.6-0.6-1-0.6c-0.7,0-0.9,0.4-0.9,0.8H176c0.2-1.7,1.4-1.9,2.5-1.9c0.8,0,2.2,0.2,2.2,1.6
		v2.9l0,0c0,0.6,0.2,0.8,0.3,0.9v0.2h-1.6c-0.1-0.2-0.1-0.4-0.1-0.6c-0.3,0.4-0.8,0.8-1.8,0.8c-0.9,0-1.7-0.5-1.7-1.6
		C175.9,35,176.6,34.5,177.5,34.4L177.5,34.4z M178,36.7c0.7,0,1.3-0.4,1.3-1.1v-0.7c-0.2,0.1-0.4,0.2-1,0.3s-1,0.2-1,0.8
		C177.3,36.5,177.7,36.7,178,36.7z M183.6,32.8L183.6,32.8c0.2-0.3,0.7-0.9,1.7-0.9c1.1,0,2,0.6,2,1.8v3.8h-1.5v-3.3
		c0-0.4,0-1.1-1-1.1c-0.7,0-1.2,0.4-1.2,1.3v3.1h-1.5V32h1.4v0.8C183.5,32.8,183.6,32.8,183.6,32.8z M189.8,34.4l1.3-0.2
		c0.2,0,0.5-0.1,0.5-0.4c0-0.6-0.6-0.6-1-0.6c-0.7,0-0.9,0.4-0.9,0.8h-1.4c0.2-1.7,1.4-1.9,2.5-1.9c0.8,0,2.2,0.2,2.2,1.6v2.9l0,0
		c0,0.6,0.2,0.8,0.3,0.9v0.2h-1.6c-0.1-0.2-0.1-0.4-0.1-0.6c-0.3,0.4-0.8,0.8-1.8,0.8c-0.9,0-1.7-0.5-1.7-1.6
		C188.2,35,188.9,34.5,189.8,34.4L189.8,34.4z M190.3,36.7c0.6,0,1.3-0.4,1.3-1.1v-0.7c-0.2,0.1-0.4,0.2-1,0.3s-1,0.2-1,0.8
		C189.6,36.5,190.1,36.7,190.3,36.7L190.3,36.7z M196.4,31.9c0.9,0,1.4,0.5,1.6,0.9l0,0v-2.6h1.5v7.3h-1.4v-0.7l0,0
		c-0.4,0.6-1,0.8-1.6,0.8c-1.7,0-2.4-1.4-2.4-2.9C194.1,32.9,195.2,31.9,196.4,31.9z M196.8,36.5c0.9,0,1.3-0.8,1.3-1.6
		c0-0.9-0.2-1.7-1.3-1.7c-0.9,0-1.3,0.8-1.3,1.7C195.6,35.5,195.9,36.5,196.8,36.5z M202.2,34.4l1.3-0.2c0.2,0,0.5-0.1,0.5-0.4
		c0-0.6-0.6-0.6-1-0.6c-0.7,0-0.9,0.4-0.9,0.8h-1.4c0.2-1.7,1.4-1.9,2.5-1.9c0.8,0,2.2,0.2,2.2,1.6v2.9l0,0c0,0.6,0.2,0.8,0.3,0.9
		v0.2h-1.6c-0.1-0.2-0.1-0.4-0.1-0.6c-0.3,0.4-0.8,0.8-1.8,0.8c-0.9,0-1.7-0.5-1.7-1.6C200.5,35,201.2,34.5,202.2,34.4L202.2,34.4z
		 M202.7,36.7c0.6,0,1.3-0.4,1.3-1.1v-0.7c-0.2,0.1-0.4,0.2-1,0.3s-1,0.2-1,0.8C202,36.5,202.4,36.7,202.7,36.7z"/>
</g>
<g>
	<g>
		<path class="st2" d="M214.5,38.5L214.5,38.5L214.5,38.5L214.5,38.5 M233.3,49.6c0.7-0.7,2.7-2.5,3.3-5.4c0.5-2.2,0.1-4.4-1.2-6
			c-0.7-1.1-1.7-1.9-2.7-2.6c0.5-0.2,0.7-0.5,1.1-0.8c1.1-1.1,1.8-2.6,1.7-4c0.6-0.2,0.9-0.8,0.9-1.4c0-0.8-0.7-1.7-1.7-1.7
			c-0.5,0-0.7,0.1-1.1,0.5c-4.3-3.7-11-4-14.8-2.2c-1.7,0.8-3.1,1.9-4.2,3.1c-0.6-1.3-1.8-2.2-3.7-2.4c-0.6,0-1.7,0-2.6,0.1
			c-2,0.1-3.6,1.7-3.7,3.5c-0.2-0.6-0.9-1.2-1.5-1.4s-1.4-0.6-2.6-1.1l-1.1-0.5c-2.3-0.8-4.3-0.1-5.5,1.8l0,0
			c-0.2,0.2-0.6,0.8-0.9,1.4c0.1-2.4,0.1-4,0.1-4.3c0.1-3.1-0.9-5-3.9-6.5c-7.4-3.7-13.8-4.4-18-4.4c-2.6,0-5.1,0.2-7.3,0.8
			c-5.5,1.7-9.5,5.6-11,10.8c0,0,0,0-0.1,0c-2.3-1.4-5.1-2.2-7.9-2.2c-2.5,0-4.9,0.7-6.8,1.9c-0.7,0.6-1.5,1.2-2.1,1.8
			c0-0.1-0.1-0.2-0.1-0.2c-0.5-1.2-1.7-2.6-4.8-3.1c-0.6,0-1.4-0.1-2.3-0.1c-2.6,0-6.3,0.2-8.5,0.8c-1.4,0.2-2.3,0.8-3.1,1.7
			c-0.1-0.8-0.6-1.8-1.4-2.5l0,0c-1.2-1.2-3-1.8-4.6-1.8c-1.8,0-3.6,0.6-4.6,1.8c-0.9,0.8-1.5,2.2-1.5,3.4c0,0.1,0,0.1,0,0.2
			l-0.7,0.1c-1.2-2.4-4.2-3.8-8.1-4.1l0,0h-0.1c-0.5,0-1.2,0-1.8,0c-1.5,0-5.4,0.1-8.5,1.2c-2.7,0.8-3.3,3.1-3.6,4.1v0.2
			c-0.2,1.3-0.6,2.6-0.7,4.3c-1.4-3-3-5.6-3.9-7.1c-1.1-1.7-2.3-2.2-4.8-2.2c-0.5,0-0.9,0-1.5,0c-3.9,0.1-5.5,2-6.7,3.8
			c-1.8,2.8-3.6,6.4-4.8,9.6c-0.6-0.7-1.4-1.3-2.1-1.7c1.2-1.3,2-3.2,1.7-5.4c-0.6-3.7-4.2-6.2-9.4-6.6l0,0c-0.5,0-1.2,0-1.8,0
			c-1.5,0-5.4,0.1-8.5,1.2c-2.7,0.8-3.3,3.1-3.6,4.1l-0.1,0.2c-1.4,5.4-0.9,14.3,0.9,19c0.2,0.8,1.2,2,3,2.5
			c2.7,0.6,5.5,0.8,7.9,0.8l0,0c5.1,0,8.3-1.4,10-2.8c0.9,1.1,2.6,1.4,4.3,1.9c1.2,0.5,2.3,0.6,3.1,0.6c0.7,0,1.5-0.1,2.1-0.5
			c1.2-0.7,1.5-1.8,1.7-2.4c0.2,0,0.5,0,0.7,0c1.4,0,3-0.1,4.3-0.5c0.1,0.5,0.1,0.7,0.2,0.8c0.2,1.1,1.1,1.9,2,2.2
			c0.5,0.1,0.9,0.2,1.4,0.2c1.4,0,3-0.6,4.8-1.8c0.5-0.2,0.7-0.5,1.1-0.7c0.6,0.8,1.4,1.4,2.6,1.7c2.7,0.6,5.5,0.8,7.9,0.8l0,0
			c5.5,0,8.6-1.7,10.5-3.1c0.1-0.1,0.1-0.1,0.2-0.2c1.1,2.8,4.4,3.1,6.2,3.1c0.2,0,0.7,0,1.1,0c2.6-0.1,4.4-0.8,5.5-2.4
			c0.1-0.1,0.1-0.2,0.2-0.5c0.9,0.8,2,1.3,3,1.8c1.8,0.6,5.2,0.8,7.9,0.8c3.1,0,4.2-0.5,4.6-0.6c1.1-0.5,1.8-1.2,2.3-2.2
			c2.6,2,6,3.1,10.1,3.1c1.8,0,3.6-0.2,4.9-0.7c0,1.3,0.9,2.2,1.2,2.5l0,0c0.2,0.5,3.7,3.8,6.4,5c1.4,0.6,2.5,0.8,3.7,0.8
			c2,0,3.2-1.1,4.6-2.2c1.4-1.2,3.7-4.1,6.7-8.8c-0.1,1.4-0.2,3.4-0.5,4c-0.1,1.7-0.2,3.4,0.7,4.7c1.1,1.2,2.7,1.3,3.8,1.3h0.1h0.1
			c0.1,0,5.2-0.2,7-0.6c3.2-0.5,3.9-1.4,4.8-3.7c0-0.1,0.1-0.2,0.1-0.5c0.7-2.2,1.4-4.6,1.8-7.2c0.6,1.2,1.5,2,2.6,3
			c-1.7,0.8-3,2.6-3,5c0,3.4,2,5.6,5.2,5.6c1.5,0,2.7-0.5,3.7-1.4c0.6,0.8,1.5,1.3,2.7,1.3h27.9c0.6,0,1.2-0.1,1.5-0.2
			c0.1,0.1,0.5,0.1,0.6,0.1h1.8c0.7,0,1.4-0.6,1.4-1.3v0.5c0-0.2-0.1-0.6-0.2-0.8l0,0V55c0-1.8-1.5-3.1-3.8-3.1
			c-0.5,0-0.9,0-1.2,0.1v-0.6C231.5,50.9,232.6,50.3,233.3,49.6"/>
		<path class="st3" d="M217.3,49.9c-0.1-0.6-0.6-1.9-2.6-1.9c-1.1,0-3,0.7-3,3.8c0,1.9,0.7,3.8,3,3.8c1.4,0,2.3-0.7,2.6-2h2.5
			c-0.5,2.4-2.1,4.1-4.9,4.1c-3.1,0-5.2-1.9-5.2-5.8c0-3.8,2.3-5.8,5.2-5.8c3.3,0,4.8,2.2,4.9,3.8H217.3L217.3,49.9z"/>
		<path class="st3" d="M226.1,53.4c-0.1,0.1-0.6,0.2-1.5,0.5c-0.7,0.1-1.5,0.2-1.5,1.2c0,0.7,0.6,1.1,1.1,1.1c0.9,0,2-0.6,2-1.7
			v-1.1H226.1z M228.3,55.7c0,1.1,0.1,1.2,0.5,1.3v0.2h-2.5c-0.1-0.5-0.1-0.5-0.1-1.1c-0.5,0.5-1.2,1.2-2.7,1.2
			c-1.2,0-2.6-0.7-2.6-2.4s1.1-2.4,2.5-2.6l2-0.2c0.2,0,0.7-0.1,0.7-0.6c0-0.8-0.9-0.8-1.5-0.8c-1.1,0-1.4,0.6-1.4,1.2h-2.1
			c0.2-2.5,2-2.8,3.8-2.8c1.2,0,3.3,0.2,3.3,2.4V55.7C228.3,55.7,228.3,55.7,228.3,55.7z"/>
		<path class="st3" d="M237.9,57.4h-2.3v-5c0-0.6,0-1.7-1.4-1.7c-0.9,0-1.7,0.6-1.7,1.9v4.7h-2.3v-8.2h2.1v1.2l0,0
			c0.2-0.5,0.9-1.4,2.6-1.4c1.7,0,3,0.8,3,2.8L237.9,57.4L237.9,57.4z"/>
		<path class="st3" d="M244.7,53.4c-0.1,0.1-0.6,0.2-1.5,0.5c-0.7,0.1-1.5,0.2-1.5,1.2c0,0.7,0.6,1.1,1.1,1.1c0.9,0,2-0.6,2-1.7
			v-1.1H244.7z M247,55.7c0,1.1,0.1,1.2,0.5,1.3v0.2H245c-0.1-0.5-0.1-0.5-0.1-1.1c-0.5,0.5-1.2,1.2-2.7,1.2c-1.2,0-2.6-0.7-2.6-2.4
			s1.1-2.4,2.5-2.6l2-0.2c0.2,0,0.7-0.1,0.7-0.6c0-0.8-0.9-0.8-1.5-0.8c-1.1,0-1.4,0.6-1.4,1.2h-2.3c0.2-2.5,2-2.8,3.8-2.8
			c1.2,0,3.3,0.2,3.3,2.4v4.3C246.8,55.7,247,55.7,247,55.7z"/>
		<path class="st3" d="M252.6,55.9c1.4,0,2-1.2,2-2.4c0-1.3-0.2-2.6-1.8-2.6c-1.4,0-1.8,1.2-1.8,2.5
			C250.7,54.3,251.2,55.9,252.6,55.9 M256.8,57.4h-2.1v-1.1l0,0c-0.6,0.8-1.5,1.2-2.5,1.2c-2.5,0-3.6-2.2-3.6-4.4
			c0-2.8,1.7-4.3,3.6-4.3c1.4,0,2.1,0.7,2.5,1.3l0,0v-4h2.3v11.2C257,57.4,256.8,57.4,256.8,57.4z"/>
		<path class="st3" d="M263.5,53.4c-0.1,0.1-0.6,0.2-1.5,0.5c-0.7,0.1-1.5,0.2-1.5,1.2c0,0.7,0.6,1.1,1.1,1.1c0.9,0,2-0.6,2-1.7
			v-1.1H263.5z M265.6,55.7c0,1.1,0.1,1.2,0.5,1.3v0.2h-2.5c-0.1-0.5-0.1-0.5-0.1-1.1c-0.5,0.5-1.2,1.2-2.7,1.2
			c-1.2,0-2.6-0.7-2.6-2.4s1.1-2.4,2.5-2.6l2-0.2c0.2,0,0.7-0.1,0.7-0.6c0-0.8-0.9-0.8-1.5-0.8c-1.1,0-1.4,0.6-1.4,1.2h-2.1
			c0.2-2.5,2-2.8,3.8-2.8c1.2,0,3.3,0.2,3.3,2.4V55.7C265.6,55.7,265.6,55.7,265.6,55.7z"/>
		<path class="st3" d="M214.5,18.4c-0.5,0.7-4.4,6.5-5.1,15.5c-0.1,4,1.5,7.6,4.9,9.5c3.7,2,8.3,1.9,12.6-0.5
			c9.2-5.2,10.1-18.3,10-24.2c0-1.3-0.9-2.2-2.3-2.2c-0.5,0-1.7,0-3.1,0.1c-1.4,0.1-2.1,1.1-2.1,2.5v0.5c0,5.4-0.5,10.3-3,13.5
			c-1.7,1.9-3.6,2.8-4.9,2.2c-1.1-0.5-1.8-1.9-1.7-3.4c0.5-3.7,2.1-6.6,3.1-8.5l0.5-0.8c0.6-1.3,0.2-2.6-0.7-3.1
			c-0.6-0.2-2-0.7-3.1-1.2l-1.4-0.5C217.3,16.8,215.7,16.6,214.5,18.4"/>
		<path class="st3" d="M246.8,14.9c-3.9,1.9-6,4.6-6.4,8.3c-0.6,5,6.9,8.4,8.8,9.3c2.1,1.1,2.3,2.2,1.7,3c-0.9,1.2-3.3,0.8-5.1,0.1
			c-2-0.7-3-1.7-4.6-3.2c-0.9-1.1-3.8,1.9-4.3,3.8c-0.1,0.8,0.1,1.3,0.7,2.2c1.5,2,6.7,5.8,14,6.4c2,0.1,7.4,0.2,11-2.8
			c1.4-1.2,3.1-3.2,3.6-5.6c0.2-1.7,0.2-3.8-1.1-5.8c-2-2.8-5.4-4.6-9.1-6.2c-5.4-2.4-4.3-3.7-3.2-4.3c1.1-0.6,5.1-0.1,8,2.4
			c1.5,1.3,4.8-2.8,3.3-4.1C259.2,13.3,251.1,12.9,246.8,14.9"/>
		<path class="st3" d="M138.9,15.9c-3.1,2-5.1,4.6-5.1,8.8c0,5,8.8,8.8,8.8,8.8c4.6,2.2,2.5,5.4-0.7,4.8c-3-0.6-5.2-1.8-7-3.1
			c-0.6-0.5-1.8-0.1-1.8,1.2c0,0.7,0,2.8,0,2.8c0,0.6,0.5,1.2,1.1,1.8c1.5,1.4,5.1,4.1,12.6,4.1c5.5,0,11.7-2.2,12.4-9
			c0.5-3.4-1.8-7.6-9.2-10.5c-2.6-1.1-3.7-2.2-3-3.8c0.6-1.4,3.2-1.8,5.7-0.7c2.6,1.2,5.1-3,2.6-4.4
			C149.4,12.9,142.9,13.2,138.9,15.9"/>
		<path class="st3" d="M105.8,42.7c0.6-0.7,0.6-1.7,0.5-2.6c-1.1-4.4-0.9-13.1-0.6-15.6c0.1-0.8-0.1-1.7-0.5-2
			c-0.7-0.7-2.3-1.3-5.1-1.4c-5.2-0.1-5.4,3-5.5,3.8c-0.5,2.2-1.1,10.1-0.2,17c0.2,2.2,2.5,3.1,6.7,2.8
			C103.9,44.4,105.4,43.4,105.8,42.7 M95.7,15.4c0-0.8,0.5-1.8,1.1-2.5c0.9-0.8,2.5-1.4,3.9-1.4c1.5,0,3.1,0.6,3.9,1.4
			c0.7,0.7,1.1,1.4,1.1,2.5c0,2.2-2.3,4-5.1,4c-1.5,0-3.1-0.6-3.9-1.4C95.9,17.2,95.7,16.2,95.7,15.4"/>
		<path class="st3" d="M131.1,16.5c-0.2-0.7-1.1-1.9-3.8-2.2c-3-0.2-9.9,0-13.2,0.8c-3.7,1.1-4.2,3.5-4.4,5.4
			c-0.5,2.4-1.1,11.1,0.1,18.3c0.5,2.2,1.5,3.4,4.2,4.4c3.1,1.2,12.3,1.4,14.3,0.6c1.4-0.6,1.5-1.4,1.7-1.7c0.5-0.7,1.1-3,1.1-4.7
			c0-0.5-0.1-0.7-0.5-1.1c-0.5-0.5-1.4-0.5-1.7-0.2c-1.5,0.5-4.1,0.5-7,0.5c0,0-0.9,0-1.2-0.5c-0.1-0.2-0.2-0.6-0.2-0.8l0.1-1.2
			c0-0.6,0.6-1.2,1.2-1.2c2.3,0,7-0.5,7.4-0.5c0.5,0,0.9-0.6,1.1-1.2c0.1-0.5,0.2-1.9,0.2-3c0-1.1-1.4-1.2-1.4-1.2
			c-0.5,0-3.9-0.6-6.7-0.8c-0.2,0-0.6-0.1-0.9-0.5c-0.1-0.2-0.2-0.6-0.2-1.1c0-0.2,0.1-0.6,0.1-1.1c0.1-0.6,0.6-1.1,1.4-1.1
			c1.5,0.1,4.4,0.1,6.3,0.2c2.3,0.1,2.6-0.7,2.7-1.8C132.2,20.1,131.4,17.3,131.1,16.5"/>
		<path class="st3" d="M82.1,36.6c-1.4,1.4-4.6,1.4-8,1.3c0,0-0.2,0-0.5,0c-0.2,0-0.1-0.1-0.1-0.1v-0.5l0.2-5.2c0,0,0-0.2,0-0.5
			c0-0.1,0.1-0.1,0.1-0.1h0.6c0.1,0,5.4-0.7,7.6,1.1c0.6,0.5,0.9,1.1,0.9,1.8C83,35,82.7,36,82.1,36.6 M73.5,20.4c0-0.1,0-0.1,0-0.1
			c0.1,0,0.5-0.1,0.5-0.1l0,0c0.1,0,5.1-0.8,7,0.5c0.5,0.2,0.7,0.7,0.9,1.3c0.1,0.7-0.1,1.4-0.7,2c-1.2,1.3-3.8,2-6.9,1.9
			c0,0-0.2,0-0.5,0c-0.1,0-0.1-0.1-0.1-0.1v-0.5l-0.1-4.4C73.5,20.8,73.5,20.6,73.5,20.4 M92.2,34.9c-0.1-4.7-4.4-6.2-7-7.1
			c-0.1-0.1-0.6-0.1-0.9-0.2s-0.2-0.1,0-0.2c0.2-0.1,0.7-0.5,0.7-0.5c1.2-0.6,5.1-2.8,4.4-7.1c-0.7-5.2-7.6-6-9.9-6.4l0,0
			c-2.3-0.1-8.3-0.1-12.6,1.3c-2,0.7-2.5,2.2-2.7,3.4l-0.1,0.2C62.4,25,63,36.2,65.5,42l0,0l0,0c0,0,0.2,1.1,1.7,1.3
			c12.9,3,19.2-0.1,21.8-2.2C91.2,39.7,92.5,37.3,92.2,34.9"/>
		<path class="st3" d="M20,36.6c-1.4,1.4-4.6,1.4-8,1.3c0,0-0.2,0-0.5,0s-0.1-0.1-0.1-0.1v-0.5l0.2-5.2c0,0,0-0.2,0-0.5
			c0-0.1,0.1-0.1,0.1-0.1h0.5l0,0c0.1,0,5.4-0.7,7.5,1.1c0.6,0.5,0.9,1.1,0.9,1.8C20.9,35,20.6,36,20,36.6 M11.3,20.4
			c0-0.1,0-0.1,0-0.1c0.1,0,0.5-0.1,0.5-0.1l0,0c0.1,0,5.1-0.8,7,0.5c0.5,0.2,0.7,0.7,0.9,1.3c0.1,0.7-0.1,1.4-0.6,2
			c-1.2,1.3-3.8,2-6.9,1.9c0,0-0.2,0-0.5,0s0-0.1,0-0.1S11.3,20.6,11.3,20.4 M30.1,34.9c-0.1-4.7-4.4-6.2-7-7.1
			c-0.2-0.1-0.7-0.1-0.9-0.2c-0.2-0.1-0.2-0.1,0-0.2c0.2-0.1,0.9-0.5,0.9-0.5c1.2-0.6,5.1-2.8,4.3-7.1c-0.7-5.2-7.6-6-9.9-6.4l0,0
			c-2.5-0.2-8.4-0.2-12.7,1.3c-2.1,0.7-2.5,2.2-2.7,3.4L2,18.4C0.3,25,0.8,36.2,3.3,42l0,0l0,0c0,0,0.2,1.1,1.7,1.3
			c12.8,3,19.1-0.1,21.7-2.2C29,39.7,30.2,37.3,30.1,34.9"/>
		<path class="st3" d="M50.6,34.6c-2,0.2-4.9,0.2-7,0.1c-0.2,0-0.1-0.1-0.1-0.2s3.3-7.3,3.6-7.7c0.1-0.2,0.1-0.2,0.2,0
			c0,0.1,3.6,7.6,3.6,7.6C50.7,34.4,50.8,34.6,50.6,34.6 M62.8,38.6c0-0.1-0.1-0.2-0.1-0.5c-2.3-8.3-7.5-18.5-10.4-22.7
			c-0.9-1.4-1.5-1.8-5.7-1.4c-3.8,0.1-5.1,1.8-6.3,3.7c-5.2,7.9-9.7,22.4-9.7,22.5c-0.5,1.8-0.5,2.2,4.6,3.8
			c2.1,0.7,3.7,0.8,4.4,0.5c0.5-0.2,0.6-0.8,0.7-1.4c0-0.2,0.2-1.1,0.6-1.9l0.1-0.2c0,0,0-0.1,0.1-0.1c0.1,0,0.2,0,0.2,0
			c2.7,0.5,6.9,0.1,10.5-0.7c0,0,0.1,0,0.2-0.1c0.1,0,0.1,0.1,0.1,0.1l0.1,0.2c0.6,1.8,0.9,3.1,1.1,3.5c0.1,0.5,0.5,0.7,0.7,0.8
			c0.7,0.2,2.1,0.1,5.4-1.8C63.4,40.5,63,39.7,62.8,38.6"/>
		<path class="st3" d="M266.5,16.6h0.1c0.1,0,0.2,0,0.2-0.1c0-0.1-0.1-0.1-0.2-0.1h-0.1V16.6z M266.1,16h0.6c0.2,0,0.5,0.1,0.5,0.5
			c0,0.2-0.1,0.5-0.2,0.5l0.5,0.6h-0.2l-0.2-0.6h-0.1v0.6h-0.2v-1.4h-0.5V16z M266.6,17.8c0.6,0,1.1-0.5,1.1-1.1s-0.5-1.1-1.1-1.1
			c-0.6,0-1.1,0.5-1.1,1.1S266,17.8,266.6,17.8 M266.6,15.4c0.7,0,1.4,0.6,1.4,1.3c0,0.7-0.6,1.3-1.4,1.3c-0.7,0-1.4-0.6-1.4-1.3
			C265.4,16,265.9,15.4,266.6,15.4"/>
		<path class="st3" d="M203.9,6.8c-12.2-6-24.2-6.6-31.5-4.4c-13.7,4-18,20.8-5.2,29c0.7,0.5,0.2,1.4-0.6,3.2
			c-1.2,2-3.3,6.2-7.4,9.1c-2.3,1.8-3.8,2.5-2,4.7c0,0,4.3,4.6,7.5,6c3.8,1.7,4.8,1.3,7.6-1.2c1.8-1.7,5.4-6,9.7-13
			c2.3-3.7,5.2-3.7,4.8,2.4c0,0-0.6,5.8-0.7,7c-0.5,3.4-0.1,4.6,3.1,4.7c0,0,6.9-0.2,9.4-0.7c3.3-0.5,3.2-1.1,3.9-3.5
			c4.8-13.6,5.1-37.1,5.1-37.1C208,9.6,206.8,8.3,203.9,6.8"/>
		<path class="st4" d="M195.8,18.8c0,0-4.3,2.8-4.4,3c-0.2,0.2-0.9,0.6-0.9,1.9c0,0.6-0.1,4.4-0.1,5c0,0.6-0.2,2-2,0.5
			c0,0-3-2.5-3.3-2.8c-0.1-0.1-1.1-1.2-2.6-0.6l-4.6,1.8c0,0-2.7,1.1-1.7-1.3c0.9-2.4,1.7-4.3,1.8-4.8c0.1-0.6,0.1-1.7-0.5-2.2
			c-0.2-0.2-2.5-3.1-3-3.8c0,0-1.8-2,1.2-1.9c0,0,5.1,0.1,5.2,0.1s1.1,0,1.7-1.1c0.7-1.3,3.3-4.3,2.7-3.7c0.5-0.6,1.4-1.9,2.1,0.2
			c0,0,0.9,3,1.4,4.1c0.2,0.8,0.5,1.3,2,1.9l4.8,1.7C195.6,16.7,198,17.4,195.8,18.8"/>
	</g>
</g>
</svg>
