<?xml version="1.0" encoding="utf-8"?>
<!-- Generator: Adobe Illustrator 24.3.0, SVG Export Plug-In . SVG Version: 6.00 Build 0)  -->
<svg version="1.1" xmlns="http://www.w3.org/2000/svg" xmlns:xlink="http://www.w3.org/1999/xlink" x="0px" y="0px"
	 viewBox="0 0 192 51.9" style="enable-background:new 0 0 192 51.9;" xml:space="preserve">
<style type="text/css">
	.st0{display:none;}
	.st1{display:inline;fill:#0060AE;}
	.st2{display:inline;fill:#F48120;}
	.st3{display:inline;fill:#72BE44;}
	.st4{display:inline;fill:#EC145A;}
	.st5{display:inline;fill:#FFFFFF;}
	.st6{display:none;fill:#FFFFFF;}
	.st7{fill:#FFFFFF;}
	.st8{fill:#0060AE;}
	.st9{fill:#F48120;}
	.st10{fill:#72BE44;}
	.st11{fill:#EC145A;}
</style>
<g id="Layer_1" class="st0">
	<path class="st1" d="M146.6,44.8c-0.2-0.6-0.5-1.8-2.2-1.8c-1,0-2.5,0.7-2.5,3.6c0,1.8,0.7,3.5,2.5,3.5c1.2,0,2-0.7,2.2-1.9h2.1
		c-0.4,2.2-1.9,3.7-4.4,3.7c-2.7,0-4.6-1.8-4.6-5.3c0-3.6,2.1-5.4,4.7-5.4c3,0,4.3,2.1,4.4,3.6C148.8,44.8,146.6,44.8,146.6,44.8z"
		/>
	<path class="st1" d="M154.3,48c-0.2,0.2-0.5,0.3-1.3,0.4c-0.7,0.1-1.3,0.3-1.3,1.1c0,0.7,0.5,0.9,0.9,0.9c0.9,0,1.8-0.6,1.8-1.5
		L154.3,48L154.3,48z M156.3,50.2c0,0.9,0.2,1.1,0.4,1.2v0.3h-2.1c-0.1-0.4-0.1-0.5-0.2-0.9c-0.5,0.5-1.1,1.1-2.4,1.1
		c-1.1,0-2.3-0.6-2.3-2.2c0-1.5,0.9-2.2,2.2-2.4l1.8-0.3c0.3,0,0.7-0.2,0.7-0.6c0-0.8-0.8-0.9-1.3-0.9c-1,0-1.2,0.6-1.2,1H150
		c0.2-2.3,1.8-2.6,3.4-2.6c1.1,0,3,0.3,3,2.2L156.3,50.2L156.3,50.2z"/>
	<path class="st1" d="M164.9,51.7h-2v-4.6c0-0.6,0-1.5-1.3-1.5c-0.9,0-1.6,0.6-1.6,1.7v4.3h-2v-7.5h1.9v1.1l0,0
		c0.3-0.5,0.8-1.3,2.3-1.3s2.6,0.9,2.6,2.5v5.3H164.9z"/>
	<path class="st1" d="M170.9,48c-0.2,0.2-0.5,0.3-1.3,0.4c-0.7,0.1-1.3,0.3-1.3,1.1c0,0.7,0.5,0.9,0.9,0.9c0.9,0,1.8-0.6,1.8-1.5
		L170.9,48L170.9,48z M172.8,50.2c0,0.9,0.2,1.1,0.4,1.2v0.3h-2.1c-0.1-0.4-0.1-0.5-0.2-0.9c-0.5,0.5-1.1,1.1-2.4,1.1
		c-1.1,0-2.3-0.6-2.3-2.2c0-1.5,0.9-2.2,2.2-2.4l1.8-0.3c0.3,0,0.7-0.2,0.7-0.6c0-0.8-0.8-0.9-1.3-0.9c-1,0-1.2,0.6-1.2,1h-1.9
		c0.2-2.3,1.8-2.6,3.4-2.6c1.1,0,3,0.3,3,2.2L172.8,50.2L172.8,50.2z"/>
	<path class="st1" d="M177.8,50.2c1.3,0,1.8-1,1.8-2.2s-0.3-2.4-1.7-2.4c-1.3,0-1.7,1.1-1.7,2.3C176.2,48.8,176.5,50.2,177.8,50.2
		 M181.4,51.7h-1.9v-0.9l0,0c-0.5,0.8-1.4,1.1-2.2,1.1c-2.2,0-3.2-2-3.2-4c0-2.6,1.5-3.9,3.1-3.9c1.3,0,1.9,0.7,2.2,1.2l0,0v-3.6h2
		L181.4,51.7L181.4,51.7z"/>
	<path class="st1" d="M187.4,48c-0.2,0.2-0.5,0.3-1.3,0.4c-0.7,0.1-1.3,0.3-1.3,1.1c0,0.7,0.5,0.9,0.9,0.9c0.9,0,1.8-0.6,1.8-1.5
		L187.4,48L187.4,48z M189.3,50.2c0,0.9,0.2,1.1,0.4,1.2v0.3h-2.1c-0.1-0.4-0.1-0.5-0.2-0.9c-0.5,0.5-1.1,1.1-2.4,1.1
		c-1.1,0-2.3-0.6-2.3-2.2c0-1.5,0.9-2.2,2.2-2.4l1.8-0.3c0.3,0,0.7-0.2,0.7-0.6c0-0.8-0.8-0.9-1.3-0.9c-1,0-1.2,0.6-1.2,1H183
		c0.2-2.3,1.8-2.6,3.4-2.6c1.1,0,3,0.3,3,2.2L189.3,50.2L189.3,50.2z"/>
	<path class="st2" d="M33.4,32.6c-1.5-0.5-2.7-3-2.1-5.7s2.4-4.5,4.2-4c1.6,0.5,2.7,3.1,2.2,5.8C37,31.6,35.2,33.2,33.4,32.6
		 M46.9,21.8c-1.9-3.2-5.1-5.3-8.8-5.8c-4.7-0.7-9.3,1.3-12,5c-1.9,2.8-2.6,6.1-1.8,9.4c2,8,9.8,10.2,14.7,8.7
		c5.5-1.6,8.6-4.9,9.4-9.9C48.9,26.9,48.3,24.2,46.9,21.8"/>
	<path class="st3" d="M75.4,12.6C72.7,21.2,61.3,41,56.8,42.9c-0.6,0.3-0.8,0.3-1.4,0.2c-2.4-0.3-5.3-3.4-6.3-4.5
		c-0.4-0.5-1.3-1.7-0.6-2.3c2.8-2.3,6.2-5.8,6.4-7.9c0-0.5-0.1-0.9-0.3-1.1c-0.3-0.4-7.5-10.2-8.2-11.3c-1.2-1.8-1.2-2.2,0.1-2.9
		c1.4-0.7,3.5-1.6,5.1-2.2c1.5-0.6,1.8-0.2,2.2,0.3l6.5,8.4c0.5,0.3,0.9,0.2,1.2-0.2c0.8-1,4.3-7.5,4.9-8.6s1.7-0.8,2.8-0.8
		c1.1,0,2.9,0,4.7,0.1C75.7,10.3,75.9,10.8,75.4,12.6"/>
	<path class="st4" d="M78.6,14.6c-2.9,1.9-4.3,4.2-4.4,7.4c-0.1,4.3,5.7,7.1,7.1,7.8c1.7,0.8,2,1.7,1.7,2.4c-0.5,1-1.5,1.2-2.7,1
		c-2.2-0.5-3.9-2.5-5.6-3.5c-1-0.6-2.4,1.4-2.6,3.1c-0.1,0.8,0.1,1.2,0.8,1.8c1.6,1.5,5,4.8,11.6,5.1c1.6,0.1,5.7-0.2,8.2-3
		c1-1.1,2.1-2.6,2.4-4.7c0.2-1.4-0.1-3.2-1.2-4.9c-0.9-1.4-2.6-2.8-5.5-4.1c-4.7-2-3.2-4-2.1-4.4c1-0.3,2.6-0.1,5.4,1.7
		c1.5,0.9,3.5-2.8,2.3-3.7C87.5,11.9,81.8,12.6,78.6,14.6"/>
	<path class="st4" d="M2.3,9.9C12.6,9.8,16,9.6,25.3,8c2.1-0.4,2.3,0.7,2.6,1.4c0.3,0.6,0.8,3.6,0.8,4.3c0,0.8,0.3,1.9-0.9,2.2
		c-3.9,1.1-4.9,1.5-7.5,2.3c-1.2,0.4-1.1,0.9-1.1,1.8c0.2,5.3,1.9,12.2,3.1,16.1c0.5,1.6,0.7,2.8-0.4,3.2c-1.5,0.6-5.8,1.8-7,2
		c-2,0.4-2.3-1.1-2.5-1.9c-1.7-7-2.5-14.1-2.7-16.8C9.6,21.2,9.2,20,8,20c-1.3,0-2.7,0.2-5.4,0.2c-1.5,0-2.3-0.1-2.4-1.4
		c-0.3-0.9-0.2-6.9,0-7.8S1.5,9.9,2.3,9.9"/>
	<path class="st4" d="M172.5,12.7c-3.5,1.8-5.3,4.2-5.7,7.5c-0.5,4.6,6.2,7.8,7.7,8.6c1.9,1,2,2.1,1.5,2.8c-0.8,1-2.9,0.8-4.5,0.2
		c-1.7-0.7-2.6-1.4-4.1-3c-0.8-0.9-3.4,1.7-3.8,3.5c-0.2,0.8,0.2,1.2,0.7,2c1.4,1.9,5.9,5.3,12.4,5.8c1.8,0.1,6.5,0.2,9.7-2.5
		c1.3-1.1,2.7-3,3.2-5.1c0.3-1.5,0.3-3.5-1-5.3c-1.8-2.5-4.7-4.2-8-5.7c-4.8-2.1-3.9-3.4-2.8-3.9c1-0.5,4.4-0.2,7.1,2.2
		c1.4,1.2,4.2-2.5,3-3.8C183.5,11.2,176.3,10.8,172.5,12.7"/>
	<path class="st1" d="M134.7,5.2C124-0.4,113.5-0.9,106.9,1C94.7,4.7,91,20.1,102.2,27.7c0.7,0.5,0.3,1.4-0.6,3
		c-1.1,1.9-3,5.7-6.5,8.4c-2.1,1.6-3.4,2.3-1.7,4.3c0,0,3.8,4.3,6.6,5.5c3.4,1.5,4.2,1.2,6.8-1.1c1.6-1.5,4.7-5.5,8.5-12
		c2-3.4,4.6-3.4,4.2,2.1c0,0-0.5,5.3-0.7,6.4c-0.4,3.2-0.1,4.3,2.8,4.3c0,0,6.1-0.3,8.2-0.6c3-0.4,2.8-0.9,3.6-3.2
		c4.2-12.5,4.5-34.1,4.5-34.1C138.2,7.7,137.3,6.5,134.7,5.2"/>
	<path class="st3" d="M144.1,15.7c-0.4,0.7-4,6-4.4,14.3c-0.2,3.7,1.4,6.9,4.3,8.6c3.2,1.9,7.4,1.8,11.1-0.4
		c8.1-4.8,9-16.8,8.8-22.3c0-1.3-0.8-2-2-2.1c-0.5,0-1.5,0-2.7,0.1s-1.9,0.9-1.9,2.2v0.4c-0.1,5.1-0.4,9.5-2.6,12.3
		c-1.4,1.8-3.2,2.5-4.3,2.1c-1-0.4-1.7-1.8-1.5-3.2c0.4-3.4,1.8-6.2,2.8-7.9l0.4-0.7c0.6-1.2,0.3-2.4-0.7-2.9
		c-0.5-0.3-1.7-0.7-2.7-1.1l-1.2-0.5C146.5,14.3,145.2,14.1,144.1,15.7"/>
	<path class="st1" d="M190.3,15.7c-0.8,0-1.5-0.7-1.5-1.5s0.7-1.5,1.5-1.5s1.5,0.7,1.5,1.5C191.8,15.1,191.1,15.7,190.3,15.7
		 M190.3,12.6c-0.9,0-1.7,0.7-1.7,1.7c0,0.9,0.7,1.7,1.7,1.7c0.9,0,1.7-0.7,1.7-1.7C192,13.4,191.3,12.6,190.3,12.6"/>
	<path class="st1" d="M190,14.2h0.1c0.4,0,0.6-0.2,0.6-0.5c0-0.2-0.2-0.3-0.5-0.3H190V14.2z M189.7,15.3v-2.2h0.7
		c0.2,0,0.4,0,0.5,0.1s0.2,0.2,0.2,0.4c0,0.3-0.2,0.5-0.5,0.6l0.7,1h-0.4l-0.6-0.9H190v0.9L189.7,15.3L189.7,15.3z"/>
	<path class="st5" d="M127.2,17.6c-0.1-0.1-0.2-0.3-0.3-0.3L125,17l-0.1-1c0-0.1-0.1-0.3-0.2-0.3c-0.1-0.1-0.3-0.1-0.4,0
		c0,0-3.1,1.2-3.3,1.3c-0.2,0.1-0.4-0.1-0.3-0.4c0.2-0.3,2.4-4.2,2.4-4.2c0.1-0.1,0.1-0.3,0-0.5c-0.1-0.1-0.2-0.2-0.4-0.2H121
		l-0.7-2.9c0-0.2-0.2-0.3-0.3-0.3c-0.2,0-0.3,0-0.4,0.1l-2.2,2l-1.4-1c-0.1-0.1-0.3-0.1-0.5,0s-0.3,0.2-0.3,0.4c0,0-0.4,4.6-0.4,4.9
		c0,0.3-0.3,0.4-0.5,0.1c-0.2-0.4-2-2.9-2-2.9c-0.1-0.1-0.2-0.2-0.4-0.2c-0.1,0-0.3,0-0.4,0.2l-0.7,0.8l-1.8-0.8
		c-0.1-0.1-0.3,0-0.4,0c-0.1,0.1-0.2,0.2-0.2,0.4l0.2,2.2c0,0-0.9,0.4-0.9,0.6c-0.1,0.2-0.1,0.4,0.1,0.5c0,0,3.4,4,3.5,4.1
		s0.2,0.3,0.1,0.4c-0.2,0.2-0.7,0.8-0.7,0.8c-0.1,0.1-0.2,0.3-0.1,0.5s0.2,0.3,0.4,0.3c0,0,3.8,0.4,4,0.4s0.2,0.1,0.2,0.3l-0.7,2.2
		c-0.1,0.3,0.1,0.5,0.4,0.6s0.6,0,0.7-0.3l0.7-2.2c0-0.1,0.2-0.2,0.3-0.1c0.2,0.1,3.7,1.9,3.7,1.9s0.1,0,0.2,0s0.2,0,0.3-0.1
		c0.1-0.1,0.2-0.3,0.2-0.5c0,0-0.1-0.8-0.2-1.1c0-0.2,0.1-0.3,0.2-0.3s5.2-1.4,5.2-1.4c0.2-0.1,0.3-0.2,0.3-0.4c0-0.2-0.4-1-0.4-1
		l1.4-1.8C127.3,17.9,127.3,17.7,127.2,17.6"/>
</g>
<g id="Layer_2">
	<g>
		<path class="st6" d="M179.4,32.5c0.5-2.4,0.1-4.8-1.2-6.7c-0.8-1.3-1.9-2.4-3.1-3.3c0.4-0.2,0.8-0.5,1.2-0.8
			c1.2-1.2,2-2.8,1.9-4.4c0.7-0.2,1.3-0.9,1.3-1.7c0-1-0.8-1.7-1.7-1.7c-0.5,0-0.9,0.2-1.2,0.5c-4.4-4.4-11.2-4.8-15.2-2.6
			c-1.8,1-3.2,2.2-4.2,3.6c-0.6-1.4-1.9-2.3-3.6-2.4c-0.6,0-1.8,0-2.6,0.1c-2.1,0.2-3.5,1.7-3.8,3.9c-0.4-0.7-0.9-1.3-1.6-1.6
			c-0.6-0.3-1.4-0.6-2.6-1.1c0,0-1.1-0.4-1.1-0.4c0,0,0,0,0,0c-2.3-0.9-4.3-0.2-5.6,1.8c-0.6,0.9-1.7,2.8-2.6,5.4
			c0.3-4.7,0.4-8.2,0.4-8.5c0,0,0,0.1,0,0.1c0.2-3.3-1-5.4-4.1-7c-10.2-5.4-19.9-5.4-25.5-3.7c-5.8,1.8-10.2,6.7-11.2,12.5
			c-4.9-2.8-9.3-2.5-12.4-1c0-0.7-0.1-1.4-0.5-2.1c-0.9-1.3-2.5-1.4-3.1-1.4c-1.8-0.1-3.4-0.1-4.2-0.1c-0.1,0-0.2,0-0.4,0
			c-0.9,0-2.9-0.1-4,2c0,0,0,0,0,0.1c-0.9,1.8-2,3.8-2.8,5.2l-4-5.2c0,0-0.1-0.1-0.1-0.1l0-0.1c-1.1-1.4-2.6-1.7-4.5-0.9
			c-1.3,0.5-3.2,1.4-4.5,2c-0.5,0.3-1.7,0.9-2.1,2.3c-0.1,0.3-0.1,0.7-0.1,1c-1.1-0.5-2.4-0.9-3.7-1.1c-2.1-0.3-4.1-0.1-6,0.5
			c0-1-0.5-3.9-0.9-4.9c0,0,0-0.1,0-0.1c-0.9-2-2.4-2.8-4.7-2.4c-7.8,1.3-10.6,1.5-19.2,1.6c-3.1,0-3.9,2-4.1,2.8
			c-0.3,1.2-0.3,6.8-0.1,8c0.5,3.3,3.5,3.2,4.5,3.2c1.5,0,2.5-0.1,3.3-0.1c0.1,0,0.3,0,0.4,0c0.2,2.7,0.9,8.9,2.3,14.9
			c0,0,0,0.1,0,0.1c0.9,3.9,4,3.5,4.9,3.3c1.1-0.2,4.9-1.3,6.3-1.9c1.3-0.5,2.1-1.7,2.2-3.2c0-0.1,0-0.2,0-0.3
			c0.8,0.8,1.7,1.5,2.6,2.1c2.9,1.7,6.6,2.2,9.6,1.3c2.1-0.6,3.8-1.5,5.2-2.6c0.3,0.5,0.6,1,0.9,1.4c0.6,0.7,3.7,4.3,6.8,4.8
			c1.1,0.2,1.7,0,2.4-0.4l0.1,0c2.3-1,5.5-5,9.6-11.9c0.2-0.3,0.3-0.6,0.5-0.9c-0.2,0.5-0.3,1.1-0.4,1.6c-0.2,1.9,0.7,3,1.4,3.6
			c0,0,0.2,0.2,0.2,0.2c1.6,1.5,4.9,4.6,11.1,4.8c0.6,0,2.6,0,4.8-0.7c0,1.5,0.9,2.6,1.2,3c0,0,0,0,0,0c0.4,0.4,3.7,4.1,6.5,5.4
			c3.7,1.6,5.4,1.4,8.3-1.4c1.3-1.3,3.8-4.4,6.8-9.4c-0.2,1.6-0.4,3.8-0.4,4.4c-0.2,1.8-0.4,3.6,0.8,5c1.1,1.3,2.7,1.4,3.8,1.5
			l0.2,0c0.2,0,5.3-0.3,7.2-0.6c3.2-0.4,4.1-1.5,4.8-3.9l0.2-0.5c1-3,1.7-6.6,2.3-10.2c0.6,2.4,2,4.5,3.9,5.9
			c-1.9,0.9-3.3,2.8-3.3,5.9c0,3.9,2.3,6.5,5.8,6.5c1.4,0,2.6-0.4,3.6-1.2c0.6,0.7,1.5,0.9,2.6,1v0h0.2h1.1h1.1h1.8h1.1h1.7h2.4h1.7
			h1.9h2.5h0.9h1.8h2.2h2.5h0.6h1.7h1.8h2.5h0.9h1.8c1.1,0,1.9-0.9,1.9-1.9v-0.3c0-0.4-0.1-0.8-0.4-1.1v-3.3c0-2.3-1.8-3.8-4.4-3.8
			c-0.2,0-0.3,0-0.5,0c0.8-0.4,1.5-0.9,2.2-1.6C176.8,37.8,178.8,35.7,179.4,32.5"/>
		<polyline class="st7" points="108.2,13.4 108.2,13.4 108.2,13.4 108.2,13.4 		"/>
		<path class="st8" d="M125,16.9c0,0-3.6,2.5-3.6,2.5c-0.3,0.2-0.7,0.5-0.8,1.7c0,0.5-0.2,3.8-0.2,4.3c0,0.5-0.2,1.7-1.7,0.4
			c0,0-2.4-2.2-2.8-2.5c-0.1-0.1-0.9-1-2.2-0.5l-3.8,1.5c0,0-2.3,0.9-1.4-1.1c0.8-2,1.4-3.7,1.6-4.2c0.2-0.6,0.1-1.4-0.3-1.9
			c-0.2-0.3-2-2.7-2.4-3.3c0,0-1.5-1.8,1-1.7c0,0,4.3,0.1,4.3,0.1c0.1,0,0.9,0.1,1.4-0.8c0.7-1.1,2.8-3.7,2.3-3.2
			c0.4-0.5,1.2-1.6,1.7,0.3c0,0,0.8,2.5,1.2,3.5c0.3,0.7,0.4,1.2,1.7,1.6l3.9,1.4C124.9,15.1,126.7,15.7,125,16.9 M132.3,5.8
			c-10-5.3-20-5.8-26.1-3.9c-11.4,3.5-14.9,18.2-4.4,25.4c0.6,0.4,0.2,1.4-0.6,2.8c-1,1.8-2.8,5.4-6.1,8c-2,1.6-3.2,2.2-1.6,4.1
			c0,0,3.6,4.1,6.2,5.2c3.2,1.4,4,1.2,6.3-1.1c1.5-1.4,4.4-5.3,8-11.4c1.8-3.2,4.3-3.3,4,2c0,0-0.5,5.1-0.6,6.1
			c-0.4,3-0.1,4.1,2.6,4.1c0,0,5.7-0.3,7.7-0.6c2.8-0.4,2.6-0.8,3.4-3.1c3.9-12,4.2-32.5,4.2-32.5C135.6,8.3,134.7,7.1,132.3,5.8"/>
		<path class="st9" d="M37.3,32c-1.4-0.5-2.5-2.8-2-5.4c0.5-2.5,2.3-4.3,3.9-3.8c1.5,0.5,2.5,3,2,5.5C40.7,31,39,32.5,37.3,32
			 M49.9,21.7c-1.8-3.1-4.7-5-8.2-5.5c-4.4-0.6-8.8,1.2-11.2,4.8c-1.8,2.6-2.4,5.8-1.6,9c1.8,7.6,9.2,9.7,13.8,8.3
			c5.2-1.6,8.1-4.6,8.9-9.4C51.8,26.6,51.3,24,49.9,21.7"/>
		<path class="st10" d="M142.6,15.9c-0.4,0.7-3.7,5.8-4.1,13.6c-0.2,3.5,1.3,6.6,4,8.2c3,1.9,6.9,1.7,10.5-0.4
			c7.6-4.6,8.4-16,8.2-21.2c0-1.2-0.7-1.9-1.9-2c-0.4,0-1.4,0-2.5,0.1c-1.1,0.1-1.8,0.9-1.8,2.1l0,0.3c-0.1,4.8-0.4,9.1-2.4,11.7
			c-1.4,1.7-3,2.4-4,2c-0.9-0.4-1.6-1.7-1.4-3c0.4-3.3,1.7-5.9,2.6-7.5l0.4-0.7c0.5-1.1,0.3-2.3-0.6-2.8c-0.5-0.3-1.6-0.7-2.6-1
			l-1.2-0.4C144.8,14.6,143.6,14.4,142.6,15.9"/>
		<path class="st11" d="M169.2,12.6c-3.3,1.8-5,4.2-5.3,7.7c-0.5,4.7,5.8,7.9,7.3,8.7c1.8,1,1.9,2.1,1.4,2.8
			c-0.7,1.1-2.8,0.8-4.3,0.2c-1.6-0.7-2.5-1.5-3.8-3.1c-0.8-0.9-3.2,1.7-3.6,3.6c-0.2,0.9,0.2,1.3,0.7,2c1.3,2,5.5,5.4,11.7,5.9
			c1.7,0.1,6.1,0.2,9.1-2.6c1.2-1.1,2.5-3,3-5.2c0.3-1.5,0.3-3.6-0.9-5.4c-1.7-2.6-4.4-4.3-7.5-5.8c-4.5-2.1-3.6-3.4-2.6-4
			c0.9-0.6,4.1-0.2,6.7,2.3c1.3,1.2,3.9-2.6,2.8-3.9C179.5,11.1,172.7,10.6,169.2,12.6"/>
		<path class="st10" d="M76.6,12.9C74.1,21.2,63.4,40,59.3,41.8c-0.6,0.3-0.7,0.3-1.3,0.2c-2.2-0.3-5-3.2-5.9-4.3
			c-0.4-0.5-1.3-1.6-0.6-2.2c2.6-2.2,5.9-5.5,6-7.5c0-0.4-0.1-0.9-0.2-1.1c-0.2-0.3-7-9.7-7.7-10.7c-1.2-1.7-1.1-2.1,0.1-2.8
			c1.3-0.7,3.3-1.6,4.7-2.1c1.4-0.6,1.6-0.2,2,0.3l6.1,8c0.4,0.3,0.8,0.2,1.2-0.2c0.8-1,4.1-7.2,4.6-8.2c0.6-1.1,1.6-0.8,2.6-0.8
			c1.1,0,2.7,0,4.4,0.1C77,10.8,77.2,11.3,76.6,12.9"/>
		<path class="st11" d="M79.7,14.9c-2.7,1.8-4,4-4.1,7.1c-0.1,4.1,5.3,6.8,6.7,7.4c1.6,0.7,1.9,1.6,1.6,2.3c-0.4,1-1.4,1.2-2.5,0.9
			c-2.1-0.4-3.7-2.3-5.3-3.3c-0.9-0.5-2.3,1.3-2.5,3c-0.1,0.8,0.1,1.2,0.7,1.7c1.5,1.4,4.6,4.6,10.8,4.9c1.5,0.1,5.3-0.2,7.7-2.9
			c1-1.1,2-2.5,2.2-4.5c0.2-1.4-0.1-3-1.2-4.6c-0.9-1.4-2.4-2.7-5.1-3.9c-4.4-1.9-3-3.9-2-4.2c0.9-0.3,2.5-0.1,5.1,1.6
			c1.4,0.9,3.3-2.6,2.1-3.5C88.1,12.3,82.7,12.9,79.7,14.9"/>
		<path class="st11" d="M8.1,10.4c9.6-0.1,12.9-0.3,21.6-1.8c2-0.3,2.1,0.7,2.4,1.3c0.3,0.5,0.8,3.4,0.7,4.1c0,0.7,0.3,1.8-0.9,2.1
			c-3.7,1.1-4.6,1.4-7,2.2c-1.1,0.4-1,0.8-1,1.7c0.2,5,1.8,11.6,2.9,15.3c0.5,1.6,0.7,2.7-0.4,3.1c-1.4,0.6-5.4,1.7-6.5,1.9
			c-1.9,0.4-2.1-1-2.3-1.8c-1.6-6.6-2.4-13.4-2.5-15.9c-0.1-1.3-0.5-2.5-1.6-2.5c-1.2,0-2.5,0.2-5.1,0.2c-1.4,0-2.1-0.1-2.3-1.3
			C5.9,18,6,12.3,6.2,11.5C6.4,10.6,7.3,10.4,8.1,10.4"/>
		<path class="st8" d="M185.9,16c-0.8,0-1.4-0.6-1.4-1.4c0-0.8,0.6-1.4,1.4-1.4c0.8,0,1.4,0.6,1.4,1.4C187.3,15.3,186.7,16,185.9,16
			 M185.9,13c-0.9,0-1.6,0.7-1.6,1.6c0,0.9,0.7,1.6,1.6,1.6c0.9,0,1.6-0.7,1.6-1.6C187.5,13.7,186.8,13,185.9,13"/>
		<path class="st8" d="M185.6,14.4L185.6,14.4c0.5,0,0.7-0.1,0.7-0.4c0-0.2-0.2-0.3-0.5-0.3h-0.2V14.4z M185.3,15.6v-2.1h0.6
			c0.2,0,0.4,0,0.5,0.1c0.1,0.1,0.2,0.2,0.2,0.4c0,0.3-0.1,0.5-0.4,0.6l0.7,1h-0.4l-0.6-0.9h-0.3v0.9H185.3z"/>
		<path class="st8" d="M145.4,44.5c-0.2-0.6-0.5-1.6-2.1-1.6c-0.9,0-2.3,0.6-2.3,3.3c0,1.7,0.7,3.2,2.3,3.2c1.1,0,1.8-0.6,2.1-1.8h2
			c-0.4,2.1-1.7,3.5-4.1,3.5c-2.5,0-4.3-1.7-4.3-5c0-3.3,1.9-5,4.3-5c2.8,0,3.9,2,4,3.4H145.4z"/>
		<path class="st8" d="M152.5,47.5c-0.2,0.1-0.5,0.3-1.2,0.4c-0.7,0.1-1.2,0.3-1.2,1.1c0,0.6,0.5,0.8,0.8,0.8c0.8,0,1.6-0.5,1.6-1.4
			V47.5z M154.3,49.5c0,0.8,0.2,1,0.4,1.1v0.3h-2c-0.1-0.3-0.1-0.4-0.2-0.8c-0.4,0.4-1,1-2.2,1c-1,0-2.1-0.6-2.1-2.1
			c0-1.4,0.9-2.1,2-2.3l1.6-0.3c0.3,0,0.6-0.2,0.6-0.6c0-0.8-0.7-0.8-1.2-0.8c-0.9,0-1.1,0.6-1.1,1h-1.8c0.2-2.2,1.7-2.5,3.1-2.5
			c1,0,2.8,0.3,2.8,2V49.5z"/>
		<path class="st8" d="M162.2,50.9h-1.8v-4.3c0-0.5,0-1.4-1.2-1.4c-0.8,0-1.4,0.6-1.4,1.6v4H156v-7h1.8v1h0c0.2-0.4,0.8-1.2,2.1-1.2
			c1.4,0,2.4,0.8,2.4,2.4V50.9z"/>
		<path class="st8" d="M167.8,47.5c-0.2,0.1-0.5,0.3-1.2,0.4c-0.7,0.1-1.2,0.3-1.2,1.1c0,0.6,0.5,0.8,0.8,0.8c0.8,0,1.6-0.5,1.6-1.4
			V47.5z M169.6,49.5c0,0.8,0.2,1,0.4,1.1v0.3h-2c-0.1-0.3-0.1-0.4-0.2-0.8c-0.4,0.4-1,1-2.2,1c-1,0-2.1-0.6-2.1-2.1
			c0-1.4,0.9-2.1,2-2.3l1.6-0.3c0.3,0,0.6-0.2,0.6-0.6c0-0.8-0.7-0.8-1.2-0.8c-0.9,0-1.1,0.6-1.1,1h-1.8c0.2-2.2,1.7-2.5,3.1-2.5
			c1,0,2.8,0.3,2.8,2V49.5z"/>
		<path class="st8" d="M174.2,49.6c1.2,0,1.6-1,1.6-2c0-1.1-0.3-2.3-1.6-2.3c-1.2,0-1.6,1-1.6,2.2C172.7,48.3,173,49.6,174.2,49.6
			 M177.5,50.9h-1.8V50h0c-0.4,0.8-1.3,1.1-2,1.1c-2.1,0-2.9-1.9-2.9-3.8c0-2.4,1.4-3.6,2.9-3.6c1.2,0,1.7,0.6,2,1.1h0v-3.4h1.8
			V50.9z"/>
		<path class="st8" d="M183,47.5c-0.2,0.1-0.5,0.3-1.2,0.4c-0.7,0.1-1.2,0.3-1.2,1.1c0,0.6,0.5,0.8,0.8,0.8c0.8,0,1.6-0.5,1.6-1.4
			V47.5z M184.8,49.5c0,0.8,0.2,1,0.4,1.1v0.3h-2c-0.1-0.3-0.1-0.4-0.2-0.8c-0.4,0.4-1,1-2.2,1c-1,0-2.1-0.6-2.1-2.1
			c0-1.4,0.9-2.1,2-2.3l1.6-0.3c0.3,0,0.6-0.2,0.6-0.6c0-0.8-0.7-0.8-1.2-0.8c-0.9,0-1.1,0.6-1.1,1h-1.8c0.2-2.2,1.7-2.5,3.1-2.5
			c1,0,2.8,0.3,2.8,2V49.5z"/>
	</g>
</g>
</svg>
